<?xml version="1.0" encoding="utf-8"?>
<!-- Generator: Adobe Illustrator 16.0.0, SVG Export Plug-In . SVG Version: 6.00 Build 0)  -->
<!DOCTYPE svg PUBLIC "-//W3C//DTD SVG 1.1//EN" "http://www.w3.org/Graphics/SVG/1.1/DTD/svg11.dtd">
<svg version="1.1" id="Layer_1" xmlns="http://www.w3.org/2000/svg" xmlns:xlink="http://www.w3.org/1999/xlink" x="0px" y="0px"
	 width="371.613px" height="307.096px" viewBox="0 0 371.613 307.096" enable-background="new 0 0 371.613 307.096"
	 xml:space="preserve">
<g>
	<path d="M330.384,27.547l-9.87,77.639h-23.687c-17.436,0-18.094,11.186-17.436,17.436c0.987,7.566,4.935,38.491,9.211,48.689
		c4.935,11.843,15.133,11.843,22.7,11.843h9.54l9.541,74.679H199.45v-74.679h19.081c11.843,0,20.396-5.264,22.371-19.08v-4.606
		H137.273v4.606c1.974,13.816,10.527,19.08,22.371,19.08h19.081v74.679H47.791l9.869-74.679H67.2c7.566,0,17.765,0,22.7-11.843
		c4.276-10.198,8.225-41.123,9.211-48.689c0.658-6.25,0-17.436-17.436-17.436H57.989L48.12,27.547H330.384z M162.933,103.212
		c-16.449,0-25.989,8.224-25.989,31.253H241.23c0-23.029-9.541-31.253-25.99-31.253H162.933z"/>
</g>
</svg>
