<?xml version="1.0" encoding="utf-8"?>
<!-- Generator: Adobe Illustrator 16.0.0, SVG Export Plug-In . SVG Version: 6.00 Build 0)  -->
<!DOCTYPE svg PUBLIC "-//W3C//DTD SVG 1.1//EN" "http://www.w3.org/Graphics/SVG/1.1/DTD/svg11.dtd">
<svg version="1.1" id="Layer_1" xmlns="http://www.w3.org/2000/svg" xmlns:xlink="http://www.w3.org/1999/xlink" x="0px" y="0px"
	 width="371.613px" height="307.096px" viewBox="0 0 371.613 307.096" enable-background="new 0 0 371.613 307.096"
	 xml:space="preserve">
<g>
	<g>
		<path fill="#4C2526" d="M307.72,51.593l-7.184,56.511h-14.804c-9.017,0-15.899,2.566-20.456,7.627
			c-4.297,4.773-6.056,11.182-5.229,19.048l0.012,0.111l0.015,0.111l0.077,0.594c3.355,25.785,6.338,41.181,9.379,48.431
			c7.044,16.903,22.612,16.903,30.093,16.903h1.232l6.856,53.67H201.277v-53.67h9.312c16.942,0,28.015-9.49,30.379-26.038
			l0.09-0.634v-0.64v-4.419v-9h-9h-99.454h-9v9v4.419v0.64l0.09,0.634c2.365,16.548,13.438,26.038,30.379,26.038h9.312v53.67H56.997
			l7.093-53.67h1.267c7.481,0,23.049,0,30.085-16.885c3.045-7.262,6.027-22.648,9.384-48.421l0.081-0.621l0.015-0.111l0.012-0.112
			c0.828-7.866-0.931-14.275-5.229-19.048c-4.556-5.061-11.438-7.627-20.456-7.627H64.445l-7.184-56.511H307.72 M123.29,154.203h9
			h100.085h9v-9c0-17.788-5.889-38.993-33.942-38.993h-50.2c-28.054,0-33.942,21.205-33.942,38.993V154.203 M317.936,42.593H47.045
			l9.472,74.511h22.732c16.733,0,17.365,10.734,16.733,16.733c-0.948,7.26-4.736,36.94-8.84,46.726
			c-4.736,11.365-14.523,11.365-21.785,11.365h-9.156l-9.472,71.67h125.658v-71.67h-18.312c-11.366,0-19.575-5.049-21.47-18.312
			v-4.419h99.454v4.419c-1.895,13.263-10.104,18.312-21.47,18.312h-18.312v71.67h125.659l-9.156-71.67h-9.156
			c-7.262,0-17.049,0-21.786-11.365c-4.104-9.786-7.893-39.466-8.84-46.726c-0.631-6,0-16.733,16.733-16.733h22.732L317.936,42.593
			L317.936,42.593z M132.29,145.203c0-22.1,9.156-29.993,24.942-29.993h50.2c15.786,0,24.942,7.894,24.942,29.993H132.29
			L132.29,145.203z"/>
	</g>
</g>
<path fill="none" stroke="#402021" stroke-width="9" stroke-linecap="square" stroke-linejoin="bevel" stroke-miterlimit="10" d="
	M317.936,42.593l-9.472,74.511h-22.732c-16.733,0-17.365,10.734-16.733,16.733c0.947,7.26,4.735,36.94,8.84,46.726
	c4.736,11.365,14.524,11.365,21.786,11.365h9.156l9.156,71.67H192.277v-71.67h18.312c11.366,0,19.575-5.049,21.47-18.312v-4.419
	h-99.454v4.419c1.895,13.263,10.104,18.312,21.47,18.312h18.312v71.67H46.729l9.472-71.67h9.156c7.262,0,17.049,0,21.785-11.365
	c4.104-9.786,7.893-39.466,8.84-46.726c0.631-6,0-16.733-16.733-16.733H56.517l-9.472-74.511H317.936z M157.232,115.209
	c-15.786,0-24.942,7.894-24.942,29.993h100.085c0-22.1-9.156-29.993-24.942-29.993H157.232z"/>
<path fill="#402021" d="M317.936,42.593l-9.472,74.511h-22.732c-16.733,0-17.365,10.734-16.733,16.733
	c0.947,7.26,4.735,36.94,8.84,46.726c4.736,11.365,14.524,11.365,21.786,11.365h9.156l9.156,71.67H192.277v-71.67h18.312
	c11.366,0,19.575-5.049,21.47-18.312v-4.419h-99.454v4.419c1.895,13.263,10.104,18.312,21.47,18.312h18.312v71.67H46.729
	l9.472-71.67h9.156c7.262,0,17.049,0,21.785-11.365c4.104-9.786,7.893-39.466,8.84-46.726c0.631-6,0-16.733-16.733-16.733H56.517
	l-9.472-74.511H317.936z M157.232,115.209c-15.786,0-24.942,7.894-24.942,29.993h100.085c0-22.1-9.156-29.993-24.942-29.993H157.232
	z"/>
<path fill="none" d="M207.433,115.209h-50.2c-15.786,0-24.942,7.894-24.942,29.993h100.085
	C232.375,123.103,223.219,115.209,207.433,115.209z"/>
<path fill="#A0C6B8" d="M119.635,79.406H77.396l-20.88,37.699h22.732c16.733,0,17.365,10.734,16.733,16.733
	c-0.948,7.26-4.736,36.94-8.84,46.726c-4.736,11.365-14.523,11.365-21.785,11.365h-9.156l-9.472,71.67l54.848-26.065L119.635,79.406
	z"/>
<polygon fill="#EDAF1F" points="119.635,79.406 119.707,79.406 243.167,79.406 243.289,79.406 287.584,79.406 317.936,42.593 
	47.045,42.593 77.396,79.406 "/>
<path fill="#4B9BBD" d="M243.179,79.518l-35.077,35.677h-51.52l-36.876-35.789h-0.072l-18.058,158.128l70.81-45.604h-18.312
	c-11.366,0-19.575-5.049-21.47-18.312v-4.419h99.454v4.419c-1.895,13.263-10.104,18.312-21.47,18.312h-18.312l69.35,45.39
	L243.179,79.518z M132.29,145.203c0-22.1,9.156-29.993,24.942-29.993h50.2c15.786,0,24.942,7.894,24.942,29.993H132.29z"/>
<path fill="#A0C6B8" d="M299.625,191.929c-7.262,0-17.049,0-21.786-11.365c-4.104-9.786-7.893-39.466-8.84-46.726
	c-0.631-6,0-16.733,16.733-16.733h22.732l-20.88-37.699h-44.295l-0.11,0.112l18.448,157.801l56.309,26.28l-9.156-71.67H299.625z"/>
<polygon points="192.277,263.599 192.278,263.599 261.627,237.319 "/>
<polygon fill="#4C2526" points="49.701,43.461 58.49,118 77.396,79.406 "/>
<polygon fill="#4C2526" points="305.659,116.299 315.801,42.593 287.584,79.406 "/>
<polygon fill="#4C2526" points="47.148,260.421 172.387,259.748 101.577,237.534 "/>
<polygon fill="#4C2526" points="192.915,259.748 317.53,260.421 261.627,237.319 "/>
<polygon fill="#71A379" points="172.387,259.748 172.387,191.929 101.577,237.534 "/>
<polygon fill="#71A379" points="192.277,191.929 192.915,259.748 261.627,237.319 "/>
<polygon fill="#ED184A" points="243.179,79.518 243.289,79.406 243.167,79.406 "/>
<polygon fill="#F15836" points="119.707,79.406 156.583,115.195 208.103,115.195 243.179,79.518 243.167,79.406 "/>
<g>
	<path fill="#FBE2C5" d="M317.936,42.593l-9.472,74.511h-22.732c-16.733,0-17.365,10.734-16.733,16.733
		c0.947,7.26,4.735,36.94,8.84,46.726c4.736,11.365,14.524,11.365,21.786,11.365h9.156l9.156,71.67H192.277v-71.67h18.312
		c11.366,0,19.575-5.049,21.47-18.312v-4.419h-99.454v4.419c1.895,13.263,10.104,18.312,21.47,18.312h18.312v71.67H46.729
		l9.472-71.67h9.156c7.262,0,17.049,0,21.785-11.365c4.104-9.786,7.893-39.466,8.84-46.726c0.631-6,0-16.733-16.733-16.733H56.517
		l-9.472-74.511H317.936 M132.29,145.203h100.085c0-22.1-9.156-29.993-24.942-29.993h-50.2
		C141.446,115.209,132.29,123.103,132.29,145.203 M320.093,40.693h-2.157H47.045h-2.157l0.272,2.14l9.472,74.511l0.211,1.66h1.674
		h22.732c5.796,0,9.953,1.353,12.355,4.02c2.142,2.38,2.979,5.951,2.489,10.615l-0.076,0.578
		c-3.139,24.101-6.042,39.448-8.627,45.613c-4.25,10.199-13.001,10.199-20.033,10.199h-9.156h-1.666l-0.218,1.651l-9.472,71.67
		l-0.284,2.149h2.167h125.658h1.9v-1.9v-71.67v-1.9h-1.9h-18.312c-11.532,0-17.935-5.412-19.57-16.548v-2.382h95.654v2.382
		c-1.635,11.136-8.038,16.548-19.57,16.548h-18.312h-1.9v1.9v71.67v1.9h1.9h125.659h2.158l-0.273-2.142l-9.156-71.67l-0.212-1.659
		h-1.673h-9.156c-7.032,0-15.783,0-20.032-10.195c-2.59-6.177-5.494-21.533-8.632-45.646l-0.078-0.596
		c-0.485-4.617,0.353-8.188,2.495-10.568c2.402-2.667,6.559-4.02,12.355-4.02h22.732h1.674l0.211-1.66l9.472-74.511L320.093,40.693
		L320.093,40.693z M134.215,143.303c0.615-23.166,12.568-26.194,23.018-26.194h50.2c10.449,0,22.403,3.028,23.018,26.194H134.215
		L134.215,143.303z"/>
</g>
<path fill="none" stroke="#4C2526" stroke-miterlimit="10" d="M317.936,42.593l-9.472,74.511h-22.732
	c-16.733,0-17.365,10.734-16.733,16.733c0.947,7.26,4.735,36.94,8.84,46.726c4.736,11.365,14.524,11.365,21.786,11.365h9.156
	l9.156,71.67H192.277v-71.67h18.312c11.366,0,19.575-5.049,21.47-18.312v-4.419h-99.454v4.419
	c1.895,13.263,10.104,18.312,21.47,18.312h18.312v71.67H46.729l9.472-71.67h9.156c7.262,0,17.049,0,21.785-11.365
	c4.104-9.786,7.893-39.466,8.84-46.726c0.631-6,0-16.733-16.733-16.733H56.517l-9.472-74.511H317.936z M157.232,115.209
	c-15.786,0-24.942,7.894-24.942,29.993h100.085c0-22.1-9.156-29.993-24.942-29.993H157.232z"/>
<g>
	<path fill="#4B9BBD" d="M314.531,45.593l-8.709,68.511h-20.089c-7.244,0-12.626,1.898-15.997,5.642
		c-3.111,3.456-4.363,8.302-3.72,14.406l0.004,0.037l0.005,0.037l0.077,0.596c3.24,24.892,6.174,40.235,8.968,46.897
		c5.505,13.211,16.969,13.211,24.555,13.211h6.515l8.389,65.67H195.277v-65.67h15.312c14.036,0,22.487-7.223,24.439-20.888
		l0.03-0.211v-0.213v-4.419v-3h-3h-99.454h-3v3v4.419v0.213l0.03,0.211c1.952,13.665,10.403,20.888,24.439,20.888h15.312v65.67
		H50.151l8.679-65.67h6.526c7.586,0,19.049,0,24.552-13.205c2.793-6.661,5.727-21.994,8.967-46.875l0.081-0.623l0.005-0.037
		l0.004-0.037c0.643-6.104-0.609-10.95-3.72-14.406c-3.371-3.744-8.752-5.642-15.997-5.642H59.159L50.45,45.593H314.531
		 M129.29,148.203h3h100.085h3v-3c0-22.201-9.14-32.993-27.942-32.993h-50.2c-18.802,0-27.942,10.792-27.942,32.993V148.203
		 M317.936,42.593H47.045l9.472,74.511h22.732c16.733,0,17.365,10.734,16.733,16.733c-0.948,7.26-4.736,36.94-8.84,46.726
		c-4.736,11.365-14.523,11.365-21.785,11.365h-9.156l-9.472,71.67h125.658v-71.67h-18.312c-11.366,0-19.575-5.049-21.47-18.312
		v-4.419h99.454v4.419c-1.895,13.263-10.104,18.312-21.47,18.312h-18.312v71.67h125.659l-9.156-71.67h-9.156
		c-7.262,0-17.049,0-21.786-11.365c-4.104-9.786-7.893-39.466-8.84-46.726c-0.631-6,0-16.733,16.733-16.733h22.732L317.936,42.593
		L317.936,42.593z M132.29,145.203c0-22.1,9.156-29.993,24.942-29.993h50.2c15.786,0,24.942,7.894,24.942,29.993H132.29
		L132.29,145.203z"/>
</g>
<g>
	<path fill="#EDAF1F" d="M261.627,237.319c0,0-1.264-9.85-3.161-24.624c-0.909-7.392-1.97-16.016-3.106-25.255
		c-1.102-9.244-2.277-19.104-3.453-28.964c-1.131-9.865-2.262-19.73-3.322-28.979c-1.026-9.253-1.983-17.889-2.803-25.291
		c-1.562-14.814-2.603-24.689-2.603-24.689s1.265,9.85,3.162,24.624c0.909,7.392,1.969,16.016,3.105,25.255
		c1.102,9.243,2.277,19.103,3.452,28.963c1.131,9.865,2.261,19.73,3.321,28.979c1.025,9.252,1.982,17.888,2.803,25.29
		C260.585,227.443,261.627,237.319,261.627,237.319z"/>
</g>
<g>
	<path fill="#EDAF1F" d="M119.635,79.406c0,0-1.017,9.896-2.543,24.739c-0.802,7.417-1.738,16.071-2.74,25.343
		c-1.037,9.268-2.143,19.152-3.25,29.038c-1.151,9.881-2.302,19.761-3.38,29.024c-1.113,9.259-2.153,17.9-3.043,25.308
		c-1.861,14.806-3.101,24.676-3.101,24.676s1.017-9.896,2.542-24.739c0.802-7.418,1.738-16.071,2.741-25.343
		c1.037-9.268,2.144-19.153,3.25-29.039c1.151-9.88,2.302-19.761,3.381-29.023c1.113-9.259,2.153-17.901,3.043-25.308
		C118.395,89.276,119.635,79.406,119.635,79.406z"/>
</g>
</svg>
